<?xml version="1.0" encoding="UTF-8" standalone="no"?>
<!DOCTYPE svg PUBLIC "-//W3C//DTD SVG 1.1//EN" "http://www.w3.org/Graphics/SVG/1.1/DTD/svg11.dtd">
<svg width="100%" height="100%" viewBox="0 0 800 800" version="1.1" xmlns="http://www.w3.org/2000/svg" xmlns:xlink="http://www.w3.org/1999/xlink" xml:space="preserve" xmlns:serif="http://www.serif.com/" style="fill-rule:evenodd;clip-rule:evenodd;">
    <g transform="matrix(33.333333,0,0,33.333333,0,0)">
        <path d="M2,18C2,17.068 2,16.602 2.152,16.235C2.355,15.745 2.745,15.355 3.235,15.152C3.602,15 4.068,15 5,15L19,15C19.932,15 20.398,15 20.765,15.152C21.255,15.355 21.645,15.745 21.848,16.235C22,16.602 22,17.068 22,18C22,18.932 22,19.398 21.848,19.765C21.645,20.255 21.255,20.645 20.765,20.848C20.398,21 19.932,21 19,21L5,21C4.068,21 3.602,21 3.235,20.848C2.745,20.645 2.355,20.255 2.152,19.765C2,19.398 2,18.932 2,18Z" style="fill:none;fill-rule:nonzero;stroke:rgb(64,196,255);stroke-width:1.5px;"/>
    </g>
    <g transform="matrix(33.333333,0,0,33.333333,0,0)">
        <path d="M2,12C2,11.068 2,10.602 2.152,10.235C2.355,9.745 2.745,9.355 3.235,9.152C3.602,9 4.068,9 5,9L19,9C19.932,9 20.398,9 20.765,9.152C21.255,9.355 21.645,9.745 21.848,10.235C22,10.602 22,11.068 22,12C22,12.932 22,13.398 21.848,13.765C21.645,14.255 21.255,14.645 20.765,14.848C20.398,15 19.932,15 19,15L5,15C4.068,15 3.602,15 3.235,14.848C2.745,14.645 2.355,14.255 2.152,13.765C2,13.398 2,12.932 2,12Z" style="fill:none;fill-rule:nonzero;stroke:rgb(64,196,255);stroke-width:1.5px;"/>
    </g>
    <g transform="matrix(33.333333,0,0,33.333333,0,0)">
        <path d="M2,6C2,5.068 2,4.602 2.152,4.235C2.355,3.745 2.745,3.355 3.235,3.152C3.602,3 4.068,3 5,3L19,3C19.932,3 20.398,3 20.765,3.152C21.255,3.355 21.645,3.745 21.848,4.235C22,4.602 22,5.068 22,6C22,6.932 22,7.398 21.848,7.765C21.645,8.255 21.255,8.645 20.765,8.848C20.398,9 19.932,9 19,9L5,9C4.068,9 3.602,9 3.235,8.848C2.745,8.645 2.355,8.255 2.152,7.765C2,7.398 2,6.932 2,6Z" style="fill:none;fill-rule:nonzero;stroke:rgb(64,196,255);stroke-width:1.5px;"/>
    </g>
    <g transform="matrix(33.333333,0,0,33.333333,0,0)">
        <circle cx="5" cy="12" r="1" style="fill:rgb(64,196,255);"/>
    </g>
    <g transform="matrix(33.333333,0,0,33.333333,0,0)">
        <circle cx="5" cy="6" r="1" style="fill:rgb(64,196,255);"/>
    </g>
    <g transform="matrix(33.333333,0,0,33.333333,0,0)">
        <circle cx="5" cy="18" r="1" style="fill:rgb(64,196,255);"/>
    </g>
</svg>
