<?xml version="1.0" encoding="UTF-8" standalone="no"?>
<!DOCTYPE svg PUBLIC "-//W3C//DTD SVG 1.1//EN" "http://www.w3.org/Graphics/SVG/1.1/DTD/svg11.dtd">
<svg width="100%" height="100%" viewBox="0 0 800 800" version="1.1" xmlns="http://www.w3.org/2000/svg" xmlns:xlink="http://www.w3.org/1999/xlink" xml:space="preserve" xmlns:serif="http://www.serif.com/" style="fill-rule:evenodd;clip-rule:evenodd;">
    <g transform="matrix(33.333333,0,0,33.333333,0,0)">
        <path d="M2,12C2,7.286 2,4.929 3.464,3.464C4.929,2 7.286,2 12,2C16.714,2 19.071,2 20.535,3.464C22,4.929 22,7.286 22,12C22,16.714 22,19.071 20.535,20.535C19.071,22 16.714,22 12,22C7.286,22 4.929,22 3.464,20.535C2,19.071 2,16.714 2,12Z" style="fill:none;fill-rule:nonzero;stroke:rgb(64,196,255);stroke-width:1.5px;"/>
    </g>
    <g transform="matrix(33.333333,0,0,33.333333,0,0)">
        <path d="M7,6C7,6.552 6.552,7 6,7C5.448,7 5,6.552 5,6C5,5.448 5.448,5 6,5C6.552,5 7,5.448 7,6Z" style="fill:rgb(64,196,255);fill-rule:nonzero;"/>
    </g>
    <g transform="matrix(33.333333,0,0,33.333333,0,0)">
        <path d="M10,6C10,6.552 9.552,7 9,7C8.448,7 8,6.552 8,6C8,5.448 8.448,5 9,5C9.552,5 10,5.448 10,6Z" style="fill:rgb(64,196,255);fill-rule:nonzero;"/>
    </g>
    <g transform="matrix(33.333333,0,0,33.333333,0,0)">
        <path d="M13,6C13,6.552 12.552,7 12,7C11.448,7 11,6.552 11,6C11,5.448 11.448,5 12,5C12.552,5 13,5.448 13,6Z" style="fill:rgb(64,196,255);fill-rule:nonzero;"/>
    </g>
    <g transform="matrix(33.333333,0,0,33.333333,0,0)">
        <path d="M2,9.5L22,9.5" style="fill:none;fill-rule:nonzero;stroke:rgb(64,196,255);stroke-width:1.5px;stroke-linecap:round;"/>
    </g>
    <g transform="matrix(33.333333,0,0,33.333333,0,0)">
        <path d="M9,21L9,10" style="fill:none;fill-rule:nonzero;stroke:rgb(64,196,255);stroke-width:1.5px;stroke-linecap:round;"/>
    </g>
</svg>
